<svg width="24" height="24" viewBox="0 0 24 24" fill="none" xmlns="http://www.w3.org/2000/svg">
<rect x="0.5" y="0.5" width="23" height="23" rx="11.5" stroke="#4C75A3"/>
<path d="M18.386 8.57C18.4793 8.26 18.386 8.03267 17.9447 8.03267H16.4827C16.1107 8.03267 15.9407 8.22934 15.8473 8.44534C15.8473 8.44534 15.104 10.258 14.0507 11.4333C13.7107 11.7753 13.5553 11.8833 13.37 11.8833C13.2773 11.8833 13.1427 11.7753 13.1427 11.4653V8.57C13.1427 8.198 13.0353 8.03267 12.7253 8.03267H10.428C10.196 8.03267 10.056 8.20467 10.056 8.36867C10.056 8.72067 10.5827 8.802 10.6367 9.794V11.946C10.6367 12.4173 10.552 12.5033 10.3653 12.5033C9.87 12.5033 8.66466 10.684 7.94933 8.60134C7.80999 8.19667 7.66933 8.03334 7.29599 8.03334H5.83466C5.41666 8.03334 5.33333 8.23 5.33333 8.446C5.33333 8.834 5.82866 10.754 7.64066 13.2933C8.84866 15.0273 10.5493 15.9673 12.0987 15.9673C13.0273 15.9673 13.142 15.7587 13.142 15.3987V14.088C13.142 13.6707 13.2307 13.5867 13.5247 13.5867C13.7407 13.5867 14.1127 13.696 14.98 14.5313C15.9707 15.522 16.1347 15.9667 16.6913 15.9667H18.1527C18.57 15.9667 18.7787 15.758 18.6587 15.346C18.5273 14.936 18.054 14.3393 17.426 13.6333C17.0847 13.2307 16.5747 12.7973 16.4193 12.5807C16.2027 12.3013 16.2653 12.178 16.4193 11.93C16.42 11.9307 18.2007 9.42267 18.386 8.57V8.57Z" fill="#4C75A3"/>
</svg>
