<svg width="24" height="24" viewBox="0 0 24 24" fill="none" xmlns="http://www.w3.org/2000/svg">
<rect width="24" height="24" fill="#25D366"/>
<path fill-rule="evenodd" clip-rule="evenodd" d="M16.2687 7.75534C15.7142 7.19726 15.0546 6.75475 14.3279 6.45344C13.6012 6.15213 12.822 5.998 12.0353 6C8.73667 6 6.05133 8.68467 6.05 11.9847C6.05 13.0393 6.32533 14.0687 6.84867 14.9767L6 18.0773L9.17267 17.2447C10.0503 17.7224 11.0335 17.9729 12.0327 17.9733H12.0353C15.3333 17.9733 18.0187 15.2887 18.02 11.9887C18.0223 11.2023 17.8687 10.4233 17.5681 9.69671C17.2674 8.97009 16.8258 8.31025 16.2687 7.75534V7.75534ZM12.0353 16.9633H12.0333C11.1423 16.9634 10.2678 16.7237 9.50133 16.2693L9.32 16.1613L7.43733 16.6553L7.93933 14.82L7.82133 14.632C7.32319 13.839 7.05949 12.9212 7.06067 11.9847C7.062 9.242 9.29333 7.01067 12.0373 7.01067C12.6908 7.00922 13.3381 7.13739 13.9418 7.38777C14.5454 7.63815 15.0934 8.00577 15.554 8.46934C16.0171 8.9307 16.3841 9.47927 16.6339 10.0833C16.8837 10.6874 17.0113 11.335 17.0093 11.9887C17.008 14.7313 14.7767 16.9633 12.0353 16.9633ZM14.764 13.2373C14.614 13.162 13.8793 12.8007 13.742 12.7507C13.6053 12.7007 13.506 12.676 13.406 12.8253C13.306 12.9747 13.0193 13.3113 12.932 13.4113C12.8447 13.5113 12.7573 13.5233 12.608 13.4487C12.4587 13.374 11.9767 13.216 11.4053 12.7067C10.9607 12.31 10.6607 11.8207 10.5733 11.6707C10.486 11.5207 10.564 11.44 10.6393 11.3653C10.7067 11.2987 10.7887 11.1907 10.8633 11.1033C10.938 11.016 10.9627 10.954 11.0127 10.854C11.0627 10.754 11.038 10.6667 11 10.592C10.9627 10.5167 10.6633 9.78067 10.5387 9.48134C10.418 9.19134 10.2947 9.23 10.2027 9.226C10.1074 9.22211 10.012 9.22033 9.91667 9.22067C9.84084 9.2226 9.76622 9.24018 9.69751 9.2723C9.62879 9.30442 9.56745 9.3504 9.51733 9.40734C9.38 9.55734 8.994 9.91867 8.994 10.6547C8.994 11.3907 9.53 12.102 9.60467 12.202C9.67933 12.302 10.6593 13.812 12.1593 14.46C12.5167 14.614 12.7953 14.706 13.012 14.7753C13.37 14.8893 13.696 14.8727 13.954 14.8347C14.2413 14.792 14.8387 14.4733 14.9633 14.124C15.088 13.7747 15.088 13.4753 15.0507 13.4127C15.0133 13.35 14.9127 13.312 14.764 13.2373" fill="white"/>
</svg>
