<svg width="24" height="24" viewBox="0 0 24 24" fill="none" xmlns="http://www.w3.org/2000/svg">
<rect x="0.5" y="0.5" width="23" height="23" rx="11.5" stroke="#CD201F"/>
<path d="M18.7078 8.62656C18.6281 8.32975 18.4719 8.05907 18.2547 7.84162C18.0375 7.62417 17.767 7.46757 17.4703 7.3875C16.3781 7.09375 12 7.09375 12 7.09375C12 7.09375 7.62187 7.09375 6.52969 7.38594C6.23284 7.46575 5.96223 7.62226 5.74501 7.83975C5.52779 8.05724 5.37162 8.32806 5.29219 8.625C5 9.71875 5 12 5 12C5 12 5 14.2813 5.29219 15.3734C5.45312 15.9766 5.92812 16.4516 6.52969 16.6125C7.62187 16.9063 12 16.9062 12 16.9062C12 16.9062 16.3781 16.9063 17.4703 16.6125C18.0734 16.4516 18.5469 15.9766 18.7078 15.3734C19 14.2813 19 12 19 12C19 12 19 9.71875 18.7078 8.62656ZM10.6094 14.0938V9.90625L14.2344 11.9844L10.6094 14.0938Z" fill="#CD201F"/>
</svg>
