<?xml version="1.0" encoding="utf-8"?>
<!-- Generator: Adobe Illustrator 22.0.1, SVG Export Plug-In . SVG Version: 6.00 Build 0)  -->
<svg version="1.1" id="livetype" xmlns="http://www.w3.org/2000/svg" xmlns:xlink="http://www.w3.org/1999/xlink" x="0px" y="0px"
	 viewBox="0 0 119.7 35.6" enable-background="new 0 0 119.7 35.6" xml:space="preserve">
<g>
	<g>
		<g>
			<path d="M115.2,35.5H4.4C2,35.5,0,33.5,0,31V4.4C0,2,2,0,4.4,0h110.8c2.4,0,4.4,2,4.4,4.4V31C119.7,33.5,117.7,35.5,115.2,35.5z"
				/>
		</g>
		<g>
			<g>
				<path fill="#A6A6A6" d="M115.2,0.7c2.1,0,3.7,1.7,3.7,3.7V31c0,2.1-1.7,3.7-3.7,3.7H4.4c-2.1,0-3.7-1.7-3.7-3.7V4.4
					c0-2.1,1.7-3.7,3.7-3.7H115.2 M115.2,0H4.4C2,0,0,2,0,4.4V31c0,2.4,2,4.4,4.4,4.4h110.8c2.4,0,4.4-2,4.4-4.4V4.4
					C119.7,2,117.7,0,115.2,0L115.2,0z"/>
			</g>
		</g>
		<path fill="#FFFFFF" d="M60.4,19.3c-2.1,0-3.8,1.6-3.8,3.8c0,2.2,1.7,3.8,3.8,3.8c2.1,0,3.8-1.6,3.8-3.8
			C64.2,20.9,62.5,19.3,60.4,19.3z M60.4,25.3c-1.1,0-2.1-0.9-2.1-2.3c0-1.4,1-2.3,2.1-2.3c1.1,0,2.1,0.9,2.1,2.3
			C62.5,24.4,61.5,25.3,60.4,25.3z M52.1,19.3c-2.1,0-3.8,1.6-3.8,3.8c0,2.2,1.7,3.8,3.8,3.8c2.1,0,3.8-1.6,3.8-3.8
			C55.9,20.9,54.2,19.3,52.1,19.3z M52.1,25.3c-1.1,0-2.1-0.9-2.1-2.3c0-1.4,1-2.3,2.1-2.3c1.1,0,2.1,0.9,2.1,2.3
			C54.3,24.4,53.3,25.3,52.1,25.3z M42.3,20.4V22h3.8c-0.1,0.9-0.4,1.6-0.9,2c-0.6,0.6-1.4,1.2-3,1.2c-2.4,0-4.2-1.9-4.2-4.3
			s1.8-4.3,4.2-4.3c1.3,0,2.2,0.5,2.9,1.1l1.1-1.1c-1-0.9-2.2-1.6-4-1.6c-3.2,0-5.9,2.6-5.9,5.9c0,3.2,2.7,5.9,5.9,5.9
			c1.7,0,3.1-0.6,4.1-1.6c1.1-1.1,1.4-2.5,1.4-3.7c0-0.4,0-0.7-0.1-1H42.3z M82.5,21.7c-0.3-0.8-1.3-2.4-3.2-2.4
			c-1.9,0-3.6,1.5-3.6,3.8c0,2.1,1.6,3.8,3.7,3.8c1.7,0,2.7-1.1,3.1-1.7l-1.3-0.9c-0.4,0.6-1,1-1.9,1c-0.8,0-1.4-0.4-1.8-1.1l5-2.1
			L82.5,21.7z M77.3,22.9c0-1.5,1.1-2.2,2-2.2c0.7,0,1.2,0.3,1.4,0.8L77.3,22.9z M73.2,26.6h1.7V15.5h-1.7V26.6z M70.5,20.1
			L70.5,20.1c-0.4-0.4-1.1-0.8-2-0.8c-1.9,0-3.6,1.7-3.6,3.8c0,2.1,1.7,3.8,3.6,3.8c0.9,0,1.6-0.4,2-0.9h0.1v0.5
			c0,1.4-0.8,2.2-2,2.2c-1,0-1.6-0.7-1.9-1.3L65.2,28c0.4,1,1.5,2.2,3.3,2.2c1.9,0,3.6-1.1,3.6-3.9v-6.8h-1.6V20.1z M68.6,25.3
			c-1.1,0-2.1-1-2.1-2.3c0-1.3,1-2.3,2.1-2.3c1.1,0,2,1,2,2.3C70.6,24.4,69.8,25.3,68.6,25.3z M90.2,15.5h-4v11.1h1.7v-4.2h2.3
			c1.8,0,3.6-1.3,3.6-3.4S92.1,15.5,90.2,15.5z M90.3,20.9h-2.4v-3.8h2.4c1.2,0,1.9,1,1.9,1.9C92.2,19.8,91.5,20.9,90.3,20.9z
			 M100.5,19.3c-1.2,0-2.4,0.5-3,1.7l1.5,0.6c0.3-0.6,0.9-0.8,1.5-0.8c0.9,0,1.7,0.5,1.7,1.4v0.1c-0.3-0.2-0.9-0.4-1.7-0.4
			c-1.6,0-3.2,0.9-3.2,2.5c0,1.5,1.3,2.4,2.8,2.4c1.1,0,1.7-0.5,2.1-1.1h0.1v0.9h1.6v-4.2C103.9,20.4,102.4,19.3,100.5,19.3z
			 M100.3,25.3c-0.5,0-1.3-0.3-1.3-0.9c0-0.9,0.9-1.2,1.8-1.2c0.7,0,1.1,0.2,1.5,0.4C102.1,24.6,101.3,25.3,100.3,25.3z M109.7,19.5
			l-1.9,4.8h-0.1l-2-4.8H104l3,6.7l-1.7,3.7h1.7l4.5-10.4H109.7z M94.8,26.6h1.7V15.5h-1.7V26.6z"/>
		<g>
			
				<linearGradient id="SVGID_1_" gradientUnits="userSpaceOnUse" x1="19.3232" y1="34.2781" x2="4.4473" y2="19.4021" gradientTransform="matrix(1 0 0 -1 0 42)">
				<stop  offset="0" style="stop-color:#00A0FF"/>
				<stop  offset="6.574450e-03" style="stop-color:#00A1FF"/>
				<stop  offset="0.2601" style="stop-color:#00BEFF"/>
				<stop  offset="0.5122" style="stop-color:#00D2FF"/>
				<stop  offset="0.7604" style="stop-color:#00DFFF"/>
				<stop  offset="1" style="stop-color:#00E3FF"/>
			</linearGradient>
			<path fill="url(#SVGID_1_)" d="M9.2,6.7C9,7,8.8,7.4,8.8,7.9v19.6c0,0.5,0.2,1,0.4,1.2l0.1,0.1l11-11v-0.1v-0.1L9.2,6.7L9.2,6.7z
				"/>
			
				<linearGradient id="SVGID_2_" gradientUnits="userSpaceOnUse" x1="29.9907" y1="24.2691" x2="8.5426" y2="24.2691" gradientTransform="matrix(1 0 0 -1 0 42)">
				<stop  offset="0" style="stop-color:#FFE000"/>
				<stop  offset="0.4087" style="stop-color:#FFBD00"/>
				<stop  offset="0.7754" style="stop-color:#FFA500"/>
				<stop  offset="1" style="stop-color:#FF9C00"/>
			</linearGradient>
			<path fill="url(#SVGID_2_)" d="M24,21.5l-3.7-3.7v-0.1v-0.1l3.7-3.7l0.1,0l4.3,2.5c1.2,0.7,1.2,1.9,0,2.6L24,21.5L24,21.5z"/>
			
				<linearGradient id="SVGID_3_" gradientUnits="userSpaceOnUse" x1="22.0065" y1="22.2351" x2="1.8336" y2="2.0621" gradientTransform="matrix(1 0 0 -1 0 42)">
				<stop  offset="0" style="stop-color:#FF3A44"/>
				<stop  offset="1" style="stop-color:#C31162"/>
			</linearGradient>
			<path fill="url(#SVGID_3_)" d="M24,21.5l-3.7-3.7l-11,11c0.4,0.4,1.1,0.5,1.8,0.1L24,21.5"/>
			
				<linearGradient id="SVGID_4_" gradientUnits="userSpaceOnUse" x1="6.4683" y1="41.8422" x2="15.4763" y2="32.8341" gradientTransform="matrix(1 0 0 -1 0 42)">
				<stop  offset="0" style="stop-color:#32A071"/>
				<stop  offset="6.850000e-02" style="stop-color:#2DA771"/>
				<stop  offset="0.4762" style="stop-color:#15CF74"/>
				<stop  offset="0.8009" style="stop-color:#06E775"/>
				<stop  offset="1" style="stop-color:#00F076"/>
			</linearGradient>
			<path fill="url(#SVGID_4_)" d="M24,14L11.1,6.6c-0.8-0.4-1.4-0.4-1.8,0.1l11,11L24,14z"/>
			<g>
				<path opacity="0.2" enable-background="new    " d="M24,21.4l-12.9,7.3c-0.7,0.4-1.4,0.4-1.8,0l0,0l-0.1,0.1l0,0l0.1,0.1l0,0
					c0.4,0.4,1.1,0.4,1.8,0L24,21.4L24,21.4z"/>
				<path opacity="0.12" enable-background="new    " d="M9.2,28.6C9,28.4,8.8,28,8.8,27.4v0.1c0,0.5,0.2,1,0.4,1.2V28.6L9.2,28.6z"
					/>
			</g>
			<path opacity="0.12" enable-background="new    " d="M28.4,18.9L24,21.4l0.1,0.1l4.3-2.5c0.6-0.4,0.9-0.8,0.9-1.3l0,0
				C29.3,18.2,28.9,18.6,28.4,18.9z"/>
			<path opacity="0.25" fill="#FFFFFF" enable-background="new    " d="M11.1,6.8l17.3,9.8c0.6,0.3,0.9,0.7,0.9,1.2l0,0
				c0-0.5-0.3-0.9-0.9-1.3L11.1,6.6C9.9,5.9,8.8,6.5,8.8,7.9v0.1C8.8,6.6,9.9,6.1,11.1,6.8z"/>
		</g>
	</g>
	<g>
		<path fill="#FFFFFF" stroke="#FFFFFF" stroke-width="0.2" stroke-miterlimit="10" d="M37.3,12.7h-0.7v-1.8h0.5
			c0.5-0.4,0.7-1.1,0.7-2V6.2h3.6v4.7H42v1.8h-0.7v-1.1h-4V12.7z M38.6,8.8c0,0.8-0.2,1.5-0.5,2h2.7v-4h-2.2V8.8z"/>
		<path fill="#FFFFFF" stroke="#FFFFFF" stroke-width="0.2" stroke-miterlimit="10" d="M47.3,10.8c-0.5,0.5-1.2,0.8-2,0.8
			c-0.8,0-1.4-0.3-1.9-0.8c-0.5-0.5-0.8-1.2-0.8-2s0.3-1.4,0.8-2c0.5-0.5,1.2-0.8,1.9-0.8c0.8,0,1.4,0.3,1.9,0.8
			c0.5,0.5,0.8,1.2,0.8,2C48.1,9.6,47.9,10.3,47.3,10.8z M44,10.4c0.4,0.4,0.9,0.6,1.4,0.6c0.6,0,1.1-0.2,1.4-0.6
			c0.4-0.4,0.6-0.9,0.6-1.5c0-0.6-0.2-1.1-0.6-1.5c-0.4-0.4-0.9-0.6-1.4-0.6c-0.6,0-1.1,0.2-1.4,0.6c-0.4,0.4-0.6,0.9-0.6,1.5
			C43.4,9.5,43.6,10,44,10.4z"/>
		<path fill="#FFFFFF" stroke="#FFFFFF" stroke-width="0.2" stroke-miterlimit="10" d="M51.6,11.6c-0.8,0-1.4-0.3-2-0.8
			c-0.5-0.5-0.8-1.2-0.8-2s0.3-1.5,0.8-2c0.5-0.5,1.2-0.8,2-0.8c0.8,0,1.5,0.3,2,0.9L53,7.4c-0.4-0.5-0.9-0.7-1.5-0.7
			c-0.6,0-1.1,0.2-1.5,0.6c-0.4,0.4-0.6,0.9-0.6,1.5c0,0.6,0.2,1.1,0.6,1.5c0.4,0.4,0.9,0.6,1.5,0.6c0.6,0,1.2-0.3,1.6-0.8l0.5,0.5
			c-0.2,0.3-0.5,0.5-0.9,0.7C52.4,11.6,52,11.6,51.6,11.6z"/>
		<path fill="#FFFFFF" stroke="#FFFFFF" stroke-width="0.2" stroke-miterlimit="10" d="M56.4,11.5h-0.7V6.9h-1.5V6.2h3.7v0.7h-1.5
			V11.5z"/>
		<path fill="#FFFFFF" stroke="#FFFFFF" stroke-width="0.2" stroke-miterlimit="10" d="M62.6,6.2l-2,4.5c-0.3,0.6-0.7,1-1.2,1
			c-0.2,0-0.3,0-0.5-0.1l0.2-0.6c0.1,0.1,0.2,0.1,0.4,0.1c0.2,0,0.3,0,0.4-0.1c0.1-0.1,0.2-0.2,0.2-0.3l0.2-0.4l-1.8-3.9h0.8
			l1.3,3.1h0l1.3-3.1H62.6z"/>
		<path fill="#FFFFFF" stroke="#FFFFFF" stroke-width="0.2" stroke-miterlimit="10" d="M63.4,11.5V6.2h3.8v5.3h-0.7V6.9h-2.5v4.7
			H63.4z"/>
		<path fill="#FFFFFF" stroke="#FFFFFF" stroke-width="0.2" stroke-miterlimit="10" d="M68.5,11.5V6.2h0.7v2.3h2.7V6.2h0.7v5.3h-0.7
			V9.1h-2.7v2.4H68.5z"/>
		<path fill="#FFFFFF" stroke="#FFFFFF" stroke-width="0.2" stroke-miterlimit="10" d="M78.1,10.8c-0.5,0.5-1.2,0.8-2,0.8
			c-0.8,0-1.4-0.3-1.9-0.8c-0.5-0.5-0.8-1.2-0.8-2s0.3-1.4,0.8-2c0.5-0.5,1.2-0.8,1.9-0.8c0.8,0,1.4,0.3,1.9,0.8
			c0.5,0.5,0.8,1.2,0.8,2C78.8,9.6,78.6,10.3,78.1,10.8z M74.7,10.4c0.4,0.4,0.9,0.6,1.4,0.6s1.1-0.2,1.4-0.6
			c0.4-0.4,0.6-0.9,0.6-1.5c0-0.6-0.2-1.1-0.6-1.5c-0.4-0.4-0.9-0.6-1.4-0.6s-1.1,0.2-1.4,0.6c-0.4,0.4-0.6,0.9-0.6,1.5
			C74.1,9.5,74.3,10,74.7,10.4z"/>
		<path fill="#FFFFFF" stroke="#FFFFFF" stroke-width="0.2" stroke-miterlimit="10" d="M81.6,11.5V6.2h1.9c0.4,0,0.8,0.1,1.1,0.4
			c0.3,0.3,0.5,0.6,0.5,1c0,0.3-0.1,0.5-0.2,0.7c-0.1,0.2-0.3,0.3-0.5,0.4v0C84.6,8.9,84.9,9,85,9.3c0.2,0.2,0.3,0.5,0.3,0.8
			c0,0.4-0.2,0.8-0.5,1.1c-0.3,0.3-0.7,0.4-1.1,0.4H81.6z M82.3,8.5h1.2c0.3,0,0.5-0.1,0.6-0.3c0.2-0.2,0.2-0.4,0.2-0.6
			s-0.1-0.4-0.2-0.6c-0.2-0.2-0.3-0.3-0.6-0.3h-1.3V8.5z M82.3,10.9h1.4c0.3,0,0.5-0.1,0.6-0.3c0.2-0.2,0.2-0.4,0.2-0.6
			c0-0.2-0.1-0.4-0.3-0.6c-0.2-0.2-0.4-0.3-0.7-0.3h-1.3V10.9z"/>
	</g>
</g>
</svg>
