<svg width="24" height="24" viewBox="0 0 24 24" fill="none" xmlns="http://www.w3.org/2000/svg">
<rect width="24" height="24" fill="url(#paint0_linear)"/>
<path d="M12 8.79532C10.2265 8.79532 8.79529 10.2266 8.79529 12C8.79529 13.7734 10.2265 15.2047 12 15.2047C13.7734 15.2047 15.2047 13.7734 15.2047 12C15.2047 10.2266 13.7734 8.79532 12 8.79532ZM12 14.0828C10.8531 14.0828 9.91717 13.1469 9.91717 12C9.91717 10.8531 10.8531 9.91719 12 9.91719C13.1469 9.91719 14.0828 10.8531 14.0828 12C14.0828 13.1469 13.1469 14.0828 12 14.0828ZM15.3359 7.91719C14.9219 7.91719 14.5875 8.25157 14.5875 8.66563C14.5875 9.07969 14.9219 9.41407 15.3359 9.41407C15.75 9.41407 16.0844 9.08125 16.0844 8.66563C16.0845 8.56731 16.0652 8.46993 16.0276 8.37907C15.9901 8.28821 15.9349 8.20565 15.8654 8.13613C15.7959 8.06661 15.7133 8.01148 15.6225 7.97391C15.5316 7.93634 15.4342 7.91707 15.3359 7.91719V7.91719ZM18.2469 12C18.2469 11.1375 18.2547 10.2828 18.2062 9.42188C18.1578 8.42188 17.9297 7.53438 17.1984 6.80313C16.4656 6.07032 15.5797 5.84375 14.5797 5.79532C13.7172 5.74688 12.8625 5.75469 12.0015 5.75469C11.139 5.75469 10.2844 5.74688 9.42342 5.79532C8.42342 5.84375 7.53592 6.07188 6.80467 6.80313C6.07186 7.53594 5.8453 8.42188 5.79686 9.42188C5.74842 10.2844 5.75623 11.1391 5.75623 12C5.75623 12.8609 5.74842 13.7172 5.79686 14.5781C5.8453 15.5781 6.07342 16.4656 6.80467 17.1969C7.53748 17.9297 8.42342 18.1563 9.42342 18.2047C10.2859 18.2531 11.1406 18.2453 12.0015 18.2453C12.864 18.2453 13.7187 18.2531 14.5797 18.2047C15.5797 18.1563 16.4672 17.9281 17.1984 17.1969C17.9312 16.4641 18.1578 15.5781 18.2062 14.5781C18.2562 13.7172 18.2469 12.8625 18.2469 12V12ZM16.8719 15.6844C16.7578 15.9688 16.6203 16.1813 16.4 16.4C16.1797 16.6203 15.9687 16.7578 15.6844 16.8719C14.8625 17.1984 12.9109 17.125 12 17.125C11.089 17.125 9.13592 17.1984 8.31405 16.8734C8.02967 16.7594 7.81717 16.6219 7.59842 16.4016C7.37811 16.1813 7.24061 15.9703 7.12655 15.6859C6.80155 14.8625 6.87498 12.9109 6.87498 12C6.87498 11.0891 6.80155 9.13594 7.12655 8.31407C7.24061 8.02969 7.37811 7.81719 7.59842 7.59844C7.81873 7.37969 8.02967 7.24063 8.31405 7.12657C9.13592 6.80157 11.089 6.875 12 6.875C12.9109 6.875 14.864 6.80157 15.6859 7.12657C15.9703 7.24063 16.1828 7.37813 16.4015 7.59844C16.6219 7.81875 16.7594 8.02969 16.8734 8.31407C17.1984 9.13594 17.125 11.0891 17.125 12C17.125 12.9109 17.1984 14.8625 16.8719 15.6844Z" fill="white"/>
<defs>
<linearGradient id="paint0_linear" x1="2.01404" y1="21.9859" x2="21.986" y2="2.01386" gradientUnits="userSpaceOnUse">
<stop stop-color="#FFD600"/>
<stop offset="0.5" stop-color="#FF0100"/>
<stop offset="0.86603" stop-color="#D800B9"/>
</linearGradient>
</defs>
</svg>
