<svg xmlns="http://www.w3.org/2000/svg" display="inherit">

    <symbol viewBox="0 0 16 16" id="point">
        <g fill="inherit" xmlns="http://www.w3.org/2000/svg">
            <path d="M7.99667 0C4.46124 0 1.58325 2.87799 1.58325 6.41342C1.58325 6.81593 1.62015 7.2218 1.6973 7.61761C1.70065 7.64109 1.71407 7.71153 1.7409 7.83228C1.83818 8.26499 1.98241 8.69099 2.17025 9.09686C2.86124 10.7237 4.38074 13.2226 7.71491 15.8994C7.79876 15.9665 7.89939 16 8.00002 16C8.10065 16 8.20128 15.9665 8.28514 15.8994C11.616 13.2226 13.1388 10.7237 13.8298 9.09686C14.0176 8.69099 14.1619 8.26834 14.2591 7.83228C14.286 7.71153 14.2994 7.64109 14.3027 7.61761C14.3765 7.2218 14.4168 6.81593 14.4168 6.41342C14.4101 2.87799 11.5321 0 7.99667 0ZM13.4038 7.45996C13.4038 7.46667 13.4004 7.47338 13.4004 7.48008C13.3971 7.49686 13.387 7.54717 13.3703 7.62432C13.3703 7.62767 13.3703 7.62767 13.3703 7.63103C13.2864 8.00671 13.1623 8.37233 12.9979 8.72453C12.9946 8.72788 12.9946 8.73459 12.9912 8.73795C12.364 10.2239 10.9887 12.4914 7.99667 14.9635C5.00464 12.4914 3.62937 10.2239 3.00212 8.73795C2.99877 8.73459 2.99877 8.72788 2.99541 8.72453C2.8344 8.37568 2.7103 8.00671 2.62308 7.63103C2.62308 7.62767 2.62308 7.62767 2.62308 7.62432C2.60296 7.54717 2.59625 7.49686 2.5929 7.48008C2.5929 7.47338 2.58954 7.46667 2.58954 7.4566C2.52246 7.11111 2.48891 6.76226 2.48891 6.41006C2.48891 3.37442 4.96103 0.902306 7.99667 0.902306C11.0323 0.902306 13.5044 3.37442 13.5044 6.41006C13.5044 6.76562 13.4709 7.11782 13.4038 7.45996Z" fill="inherit"/>
            <path d="M7.99668 2.41174C5.75265 2.41174 3.92456 4.23983 3.92456 6.48386C3.92456 8.72788 5.75265 10.556 7.99668 10.556C10.2407 10.556 12.0688 8.72788 12.0688 6.48386C12.0688 4.23983 10.2407 2.41174 7.99668 2.41174ZM7.99668 9.65031C6.24909 9.65031 4.83022 8.22809 4.83022 6.48386C4.83022 4.73962 6.25244 3.3174 7.99668 3.3174C9.74091 3.3174 11.1631 4.73962 11.1631 6.48386C11.1631 8.22809 9.74427 9.65031 7.99668 9.65031Z" fill="inherit"/>
        </g>
    </symbol>
    <symbol viewBox="0 0 16 16" id="gift">
        <g fill="inherit" xmlns="http://www.w3.org/2000/svg">
            <path d="M13.9634 6.67607L7.99993 4.69928L2.03647 6.67607L0.000244141 9.91044L1.87478 10.5318V13.9696L7.9999 16L14.125 13.9696V10.5318L15.9996 9.91044L13.9634 6.67607ZM12.1665 7.06811L7.99993 8.44923L3.83338 7.06811L7.99993 5.68699L12.1665 7.06811ZM1.43127 9.39712L2.54464 7.62859L7.28442 9.19974L6.17109 10.9682L1.43127 9.39712ZM2.81233 10.8426L6.57319 12.0893L7.53118 10.5676V14.8569L2.81233 13.2927V10.8426ZM8.46869 14.8569V10.5676L9.42668 12.0892L13.1875 10.8426V13.2927L8.46869 14.8569ZM9.82878 10.9683L8.71545 9.19977L13.4552 7.62862L14.5686 9.39715L9.82878 10.9683Z" fill="inherit"/>
            <path d="M7.53125 0H8.46877V3.1305H7.53125V0Z" fill="inherit"/>
            <path d="M3.12231 1.4325L3.9342 0.963736L5.49945 3.67475L4.68756 4.14351L3.12231 1.4325Z" fill="inherit"/>
            <path d="M10.5002 3.67511L12.0655 0.964096L12.8774 1.43286L11.3121 4.14387L10.5002 3.67511Z" fill="inherit"/>
        </g>

    </symbol>
    <symbol viewBox="0 0 16 16" id="call">
        <g fill="inherit" xmlns="http://www.w3.org/2000/svg">
            <path d="M9.01871 1V2C12.0512 2 14.5187 4.4675 14.5187 7.5H15.5187C15.5187 3.916 12.6027 1 9.01871 1ZM3.84371 2.503C3.58171 2.503 3.31921 2.5885 3.10571 2.7605L3.08121 2.7805L1.50871 4.4025L1.54221 4.371C1.02221 4.819 0.878206 5.527 1.10171 6.122C1.52321 7.337 2.59671 9.6865 4.71621 11.8025C6.83921 13.9285 9.21321 14.9565 10.3877 15.415L10.3997 15.419L10.4112 15.423C10.7053 15.5202 11.0195 15.5396 11.3233 15.4793C11.6271 15.4191 11.9101 15.2811 12.1447 15.079L12.1597 15.0665L13.7217 13.504C14.1367 13.089 14.1367 12.362 13.7217 11.9475L11.6732 9.8965C11.2572 9.4805 10.5302 9.4805 10.1142 9.8965L9.12221 10.8885C8.76721 10.719 7.89321 10.2795 7.06221 9.4875C6.24321 8.7055 5.82471 7.8025 5.67321 7.453L6.67321 6.453C7.11171 6.0145 7.13671 5.261 6.63121 4.858L6.67671 4.9005L4.60571 2.7805L4.58221 2.7605C4.37269 2.59282 4.11206 2.50194 3.84371 2.503ZM9.01871 3V4C10.9482 4 12.5187 5.57 12.5187 7.5H13.5187C13.5187 5.019 11.5002 3 9.01871 3ZM3.84471 3.5C3.88071 3.5 3.91571 3.5135 3.95021 3.54L5.98371 5.622L6.00821 5.642C6.00221 5.637 6.02721 5.685 5.96621 5.746L4.48771 7.225L4.60171 7.527C4.60171 7.527 5.16621 9.061 6.37221 10.2115C7.55821 11.3425 9.02071 11.9605 9.02071 11.9605L9.33221 12.0935L10.8212 10.604C10.9057 10.52 10.8817 10.52 10.9662 10.604L13.0147 12.655C13.0997 12.74 13.0997 12.712 13.0147 12.7975L11.4912 14.321C11.2592 14.518 11.0197 14.5695 10.7312 14.474C9.60071 14.032 7.38821 13.064 5.42321 11.096C3.44421 9.1195 2.41821 6.874 2.04221 5.786L2.04021 5.78L2.03721 5.773C1.96171 5.573 2.01721 5.2825 2.19471 5.1295L2.21121 5.1145L3.73821 3.54C3.76832 3.51528 3.80576 3.50121 3.84471 3.5ZM9.01871 5V6C9.84571 6 10.5187 6.673 10.5187 7.5H11.5187C11.5187 6.1215 10.3972 5 9.01871 5Z" fill="inherit"/>
        </g>
    </symbol>
    <symbol viewBox="0 0 16 16" id="time">
        <g fill="inherit" xmlns="http://www.w3.org/2000/svg">
            <path d="M8 15.0001C6.61553 15.0001 5.26216 14.5895 4.11101 13.8204C2.95987 13.0512 2.06266 11.9579 1.53285 10.6788C1.00303 9.39977 0.86441 7.9923 1.13451 6.63443C1.4046 5.27657 2.07129 4.02928 3.05026 3.05032C4.02922 2.07135 5.2765 1.40466 6.63437 1.13457C7.99224 0.864471 9.3997 1.00309 10.6788 1.53291C11.9579 2.06272 13.0511 2.95993 13.8203 4.11107C14.5895 5.26222 15 6.61559 15 8.00006C15 9.85658 14.2625 11.6371 12.9497 12.9498C11.637 14.2626 9.85652 15.0001 8 15.0001ZM8 2.00006C6.81332 2.00006 5.65328 2.35196 4.66658 3.01125C3.67989 3.67053 2.91085 4.60761 2.45673 5.70396C2.0026 6.80032 1.88378 8.00672 2.11529 9.17061C2.3468 10.3345 2.91825 11.4036 3.75736 12.2427C4.59648 13.0818 5.66558 13.6533 6.82946 13.8848C7.99335 14.1163 9.19975 13.9975 10.2961 13.5433C11.3925 13.0892 12.3295 12.3202 12.9888 11.3335C13.6481 10.3468 14 9.18675 14 8.00006C14 6.40877 13.3679 4.88264 12.2426 3.75742C11.1174 2.63221 9.5913 2.00006 8 2.00006Z" fill="inherit"/>
            <path d="M10.295 11.0001L7.5 8.20506V3.50006H8.5V7.79006L11 10.2951L10.295 11.0001Z" fill="inherit"/>
        </g>
    </symbol>
    <symbol viewBox="0 0 18 18" id="angle_top">
        <g fill="inherit" xmlns="http://www.w3.org/2000/svg">
            <path d="M13.5 11.25L9 6.75L4.5 11.25" stroke="inherit" stroke-width="1.2" stroke-linecap="round" stroke-linejoin="round"/>
        </g>
    </symbol>
</svg>
