<svg width="100" height="33" viewBox="0 0 100 33" fill="none" xmlns="http://www.w3.org/2000/svg">
    <path d="M43.3332 31.9191H35.2325L40.2993 0.568237H48.3996L43.3332 31.9191Z" fill="#00579F"/>
    <path d="M72.6991 1.33473C71.1012 0.700391 68.567 0 65.4334 0C57.4337 0 51.8003 4.26883 51.7658 10.372C51.6993 14.8749 55.7991 17.3759 58.8654 18.8773C61.9994 20.4115 63.0648 21.4129 63.0648 22.7804C63.0329 24.8807 60.5323 25.8488 58.2 25.8488C54.9658 25.8488 53.2329 25.3497 50.5994 24.1812L49.5327 23.6803L48.3992 30.7179C50.2991 31.584 53.7995 32.3527 57.4337 32.3864C65.9335 32.3864 71.4671 28.1836 71.5327 21.6797C71.565 18.1108 69.4002 15.3762 64.733 13.1416C61.8997 11.7072 60.1646 10.7399 60.1646 9.27219C60.1978 7.9379 61.6322 6.57125 64.8305 6.57125C67.464 6.50432 69.3989 7.13777 70.8647 7.77167L71.5974 8.10457L72.6991 1.33473V1.33473Z" fill="#00579F"/>
    <path d="M83.4655 20.8126C84.1326 19.0115 86.6996 12.0409 86.6996 12.0409C86.666 12.1078 87.3654 10.2066 87.7655 9.03941L88.3316 11.7408C88.3316 11.7408 89.8656 19.2451 90.1987 20.8126C88.9327 20.8126 85.0655 20.8126 83.4655 20.8126ZM93.4648 0.568237H87.1989C85.2666 0.568237 83.7986 1.13476 82.9649 3.16943L70.9324 31.9187H79.4322C79.4322 31.9187 80.8316 28.0492 81.1323 27.2158C82.0648 27.2158 90.3334 27.2158 91.533 27.2158C91.7655 28.3165 92.4995 31.9187 92.4995 31.9187H100L93.4648 0.568237V0.568237Z" fill="#00579F"/>
    <path d="M28.4666 0.568237L20.5333 21.9465L19.6664 17.6108C18.1997 12.6078 13.5999 7.17229 8.46667 4.46959L15.7333 31.8859H24.2995L37.0324 0.568237H28.4666V0.568237Z" fill="#00579F"/>
    <path d="M13.1666 0.568237H0.133335L0 1.20169C10.1667 3.80333 16.9 10.0745 19.6664 17.6121L16.8331 3.20356C16.3666 1.20125 14.9332 0.634287 13.1666 0.568237Z" fill="#FAA61A"/>
</svg>
