<svg width="100" height="78" viewBox="0 0 100 78" fill="none" xmlns="http://www.w3.org/2000/svg">
    <path d="M18.1975 77.425V72.2748C18.1975 70.3005 16.9958 69.013 14.9357 69.013C13.9057 69.013 12.7898 69.3563 12.0172 70.4722C11.4164 69.528 10.558 69.013 9.27046 69.013C8.41209 69.013 7.55373 69.2705 6.86703 70.2147V69.1846H5.06445V77.425H6.86703V72.8756C6.86703 71.4164 7.63956 70.7297 8.84127 70.7297C10.043 70.7297 10.6439 71.5022 10.6439 72.8756V77.425H12.4464V72.8756C12.4464 71.4164 13.3048 70.7297 14.4207 70.7297C15.6224 70.7297 16.2233 71.5022 16.2233 72.8756V77.425H18.1975V77.425ZM44.8928 69.1846H41.9743V66.6954H40.1717V69.1846H38.5409V70.8155H40.1717V74.5924C40.1717 76.4808 40.9443 77.5966 43.0044 77.5966C43.7769 77.5966 44.6353 77.3392 45.2361 76.9958L44.7211 75.4507C44.2061 75.7941 43.6052 75.8799 43.176 75.8799C42.3177 75.8799 41.9743 75.3649 41.9743 74.5065V70.8155H44.8928V69.1846V69.1846ZM60.1717 69.013C59.1417 69.013 58.455 69.528 58.0258 70.2147V69.1846H56.2233V77.425H58.0258V72.7898C58.0258 71.4164 58.6267 70.6439 59.7426 70.6439C60.0859 70.6439 60.5151 70.7297 60.8585 70.8155L61.3735 69.0988C61.0301 69.013 60.5151 69.013 60.1717 69.013V69.013ZM37.0816 69.8713C36.2232 69.2705 35.0215 69.013 33.734 69.013C31.6739 69.013 30.3005 70.043 30.3005 71.6739C30.3005 73.0473 31.3305 73.8198 33.1331 74.0774L33.9915 74.1632C34.9357 74.3348 35.4507 74.5924 35.4507 75.0215C35.4507 75.6224 34.764 76.0516 33.5623 76.0516C32.3606 76.0516 31.4164 75.6224 30.8155 75.1932L29.9572 76.5666C30.9014 77.2533 32.1889 77.5966 33.4765 77.5966C35.8799 77.5966 37.2533 76.4808 37.2533 74.9357C37.2533 73.4765 36.1374 72.7039 34.4207 72.4464L33.5623 72.3606C32.7898 72.2748 32.1889 72.1031 32.1889 71.5881C32.1889 70.9872 32.7898 70.6439 33.734 70.6439C34.764 70.6439 35.7941 71.0731 36.3091 71.3306L37.0816 69.8713V69.8713ZM84.9786 69.013C83.9486 69.013 83.2619 69.528 82.8327 70.2147V69.1846H81.0301V77.425H82.8327V72.7898C82.8327 71.4164 83.4336 70.6439 84.5494 70.6439C84.8928 70.6439 85.322 70.7297 85.6653 70.8155L86.1803 69.0988C85.837 69.013 85.322 69.013 84.9786 69.013V69.013ZM61.9743 73.3048C61.9743 75.7941 63.6911 77.5966 66.352 77.5966C67.5537 77.5966 68.4121 77.3392 69.2705 76.6525L68.4121 75.1932C67.7254 75.7082 67.0387 75.9658 66.2662 75.9658C64.8069 75.9658 63.7769 74.9357 63.7769 73.3048C63.7769 71.7597 64.8069 70.7297 66.2662 70.6439C67.0387 70.6439 67.7254 70.9014 68.4121 71.4164L69.2705 69.9572C68.4121 69.2705 67.5537 69.013 66.352 69.013C63.6911 69.013 61.9743 70.8155 61.9743 73.3048V73.3048ZM78.6267 73.3048V69.1846H76.8241V70.2147C76.2233 69.4422 75.3649 69.013 74.249 69.013C71.9314 69.013 70.1288 70.8155 70.1288 73.3048C70.1288 75.7941 71.9314 77.5966 74.249 77.5966C75.4507 77.5966 76.3091 77.1675 76.8241 76.3949V77.425H78.6267V73.3048ZM72.0173 73.3048C72.0173 71.8456 72.9615 70.6439 74.5065 70.6439C75.9657 70.6439 76.9958 71.7597 76.9958 73.3048C76.9958 74.764 75.9657 75.9658 74.5065 75.9658C72.9615 75.8799 72.0173 74.764 72.0173 73.3048ZM50.4722 69.013C48.0687 69.013 46.352 70.7297 46.352 73.3048C46.352 75.8799 48.0688 77.5966 50.558 77.5966C51.7597 77.5966 52.9615 77.2533 53.9057 76.4808L53.0473 75.1932C52.3606 75.7082 51.5022 76.0516 50.6439 76.0516C49.528 76.0516 48.4121 75.5366 48.1546 74.0774H54.249C54.249 73.8198 54.249 73.6482 54.249 73.3906C54.3348 70.7297 52.7898 69.013 50.4722 69.013V69.013ZM50.4722 70.558C51.5881 70.558 52.3606 71.2447 52.5323 72.5323H48.2404C48.4121 71.4164 49.1846 70.558 50.4722 70.558ZM95.1932 73.3048V65.9229H93.3906V70.2147C92.7898 69.4422 91.9314 69.013 90.8155 69.013C88.4979 69.013 86.6954 70.8155 86.6954 73.3048C86.6954 75.7941 88.4979 77.5966 90.8155 77.5966C92.0173 77.5966 92.8756 77.1675 93.3906 76.3949V77.425H95.1932V73.3048ZM88.5838 73.3048C88.5838 71.8456 89.528 70.6439 91.073 70.6439C92.5323 70.6439 93.5623 71.7597 93.5623 73.3048C93.5623 74.764 92.5323 75.9658 91.073 75.9658C89.528 75.8799 88.5838 74.764 88.5838 73.3048ZM28.3263 73.3048V69.1846H26.5237V70.2147C25.9228 69.4422 25.0645 69.013 23.9486 69.013C21.631 69.013 19.8284 70.8155 19.8284 73.3048C19.8284 75.7941 21.631 77.5966 23.9486 77.5966C25.1503 77.5966 26.0087 77.1675 26.5237 76.3949V77.425H28.3263V73.3048ZM21.631 73.3048C21.631 71.8456 22.5752 70.6439 24.1202 70.6439C25.5795 70.6439 26.6095 71.7597 26.6095 73.3048C26.6095 74.764 25.5795 75.9658 24.1202 75.9658C22.5752 75.8799 21.631 74.764 21.631 73.3048Z" fill="black"/>
    <path d="M63.5193 6.6095H36.4807V55.1932H63.5193V6.6095Z" fill="#FF5F00"/>
    <path d="M38.1974 30.9013C38.1974 21.03 42.8326 12.2747 49.9571 6.60945C44.721 2.48928 38.1116 0 30.9013 0C13.8197 0 0 13.8197 0 30.9013C0 47.9828 13.8197 61.8026 30.9013 61.8026C38.1116 61.8026 44.721 59.3133 49.9571 55.1932C42.8326 49.6138 38.1974 40.7725 38.1974 30.9013Z" fill="#EB001B"/>
    <path d="M100 30.9013C100 47.9828 86.1803 61.8026 69.0988 61.8026C61.8885 61.8026 55.279 59.3133 50.043 55.1932C57.2533 49.5279 61.8026 40.7725 61.8026 30.9013C61.8026 21.03 57.1674 12.2747 50.043 6.60945C55.279 2.48928 61.8885 0 69.0988 0C86.1803 0 100 13.9056 100 30.9013Z" fill="#F79E1B"/>
</svg>
