<svg width="89" height="25" viewBox="0 0 89 25" fill="none" xmlns="http://www.w3.org/2000/svg">
    <path fill-rule="evenodd" clip-rule="evenodd" d="M8.88764 0.254096C9.67382 0.249393 12.0103 0.0389562 13 3.37916C13.6667 5.62916 14.7286 9.31477 16.1859 14.436H16.7794C18.3421 9.03684 19.4157 5.35123 20 3.37916C21 0.00416231 23.5 0.254162 24.5 0.254162L32.2152 0.254172V24.2541H24.3517V10.1105H23.8243L19.4408 24.2541H13.5244L9.14089 10.1001H8.61358V24.2541H0.75V0.254172L8.88764 0.254096ZM43.5072 0.254172V14.4083H44.1345L49.4667 2.76945C50.5018 0.453298 52.7078 0.254172 52.7078 0.254172H60.3174V24.2542H52.2896V10.1001H51.6623L46.4347 21.7389C45.3996 24.0446 43.089 24.2542 43.089 24.2542H35.4794V0.254172H43.5072ZM88.0651 11.6591C86.9453 14.8324 83.4287 17.1049 79.5354 17.1049H71.1166V24.2542H63.4827V11.6591H88.0651Z" fill="#0F754E"/>
    <path fill-rule="evenodd" clip-rule="evenodd" d="M79.9035 0.25415H63.0823C63.4826 5.59736 68.084 10.1715 72.8475 10.1715H88.5955C89.5043 5.73066 86.3758 0.25415 79.9035 0.25415Z" fill="url(#paint0_linear)"/>
    <defs>
        <linearGradient id="paint0_linear" x1="88.75" y1="6.49259" x2="63.0823" y2="6.49259" gradientUnits="userSpaceOnUse">
            <stop stop-color="#1F5CD7"/>
            <stop offset="1" stop-color="#02AEFF"/>
        </linearGradient>
    </defs>
</svg>

